<svg xmlns="http://www.w3.org/2000/svg" xmlns:xlink="http://www.w3.org/1999/xlink" viewBox="0 0 1073.88 545.73"><defs><style>.cls-1{fill:none;}.cls-2{clip-path:url(#clip-path);}.cls-3{fill:#b5a77f;}.cls-4{font-size:181.05px;}.cls-4,.cls-6{fill:#404041;font-family:Brigmore-Bold, Brigmore;font-weight:700;}.cls-5{letter-spacing:0.35em;}.cls-6{font-size:76.2px;letter-spacing:0.34em;}.cls-7{letter-spacing:0em;}</style><clipPath id="clip-path"><rect class="cls-1" width="1073.88" height="547.9"/></clipPath></defs><g id="All_Badges" data-name="All Badges"><g class="cls-2"><polygon class="cls-3" points="474 540.03 460.73 547.9 380.52 547.9 380.52 540.03 474 540.03"/><polygon class="cls-3" points="702.78 540.03 702.78 557.93 685.53 547.9 622.57 547.9 618.31 545.38 618.08 545.24 609.3 540.03 702.78 540.03"/><path class="cls-3" d="M648.94,642.36l-4,2.35h4.36v-2.35Zm-4.32-60.71,4,2.34h.62v-2.34Zm-34.16,83.09-4,2.35h4.36v-2.35ZM471.46,559l-.43.25v2.1h1.06l4-2.35Zm138.9,0-19.08-11.1-16.13-9.38-20.66-12-4-2.35-9.54-5.55-9.54,5.55-4,2.35-20.66,12-16.13,9.38h4.67l16.13-9.38,20.66-12,4-2.35,4.87-2.83,4.86,2.83,4,2.35,20.67,12,16.12,9.38L605.68,559l4,2.35h1.06v-2.1ZM550.61,699.56l-4,2.35-5.66,3.29-5.66-3.29-4-2.35h-4.67l4,2.35,10.33,6,10.33-6,4-2.35Zm-79.26-34.82H471v2.35h4.36ZM433,581.65V584h.21l4-2.34Zm0,60.76v2.3h4Z"/><path class="cls-3" d="M699.69,506.89a14.57,14.57,0,0,1,2,.15L540.91,413.52,381.32,506.35a14.12,14.12,0,0,1,3.49.69l156.1-90.8,156.25,90.89A14.09,14.09,0,0,1,699.69,506.89Z"/><path class="cls-3" d="M609.48,540l-2.6-1.51-20.66-12-4-2.35-5.68-3.31-2.34-1.35-32.42-18.86-.58-.34-.59-.35-.18.1-1,.58L507.29,519.3,505,520.66l-6,3.49-4,2.35-20.66,12-2.6,1.51-13.52,7.87h4.67l16.12-9.38,20.67-12,4-2.35,36.77-21.39.17-.1,36.94,21.49,4,2.35,20.67,12,16.12,9.38H623Zm108.07,62.86-2.35-1.36-12.42-7.23v.21l12.42,7.22v2.51l2.35,1.37,13.15,7.65-13.15,7.65-2.35,1.37v2.51L702.78,632v.21L715.2,625l2.35-1.36,17.82-10.37Zm-106,82.21-24.86,14.46h-4.33l-4,2.35-37.73,22-.17-.1-37.56-21.85-4-2.35-131.52-76.5-2.35-1.37-14.49-8.43,14.49-8.43,2.35-1.37v-2.71l-2.35,1.36-19.16,11.15,19.16,11.15,2.35,1.36,13.24,7.7,91,52.95,22.59,13.14,4,2.35,41.23,24,.58.34.42.25.17.1,1.17-.68,41.24-24,4-2.35,22.59-13.14h-.31Z"/><path class="cls-3" d="M618.31,545.38l-.23-.14-11.55-6.72-20.66-12-4-2.35-5.51-3.2L574,519.59l-32.25-18.76-.93-.54-.42-.25-.17-.1-.82.48L507.11,519.2l-2.33,1.36-6.18,3.59-4,2.35-20.66,12L471.3,540l-13.52,7.87h4.67l16.12-9.38,20.67-12,4-2.35,36.94-21.49.18.1,36.76,21.39,4,2.35,20.67,12L618,547.9h4.67Zm99.24,57.72-2.35-1.37v2.72l2.35,1.36,12.8,7.45-12.8,7.45-2.35,1.36v2.72l2.35-1.37L735,613.26ZM582,699.56l-4,2.35L540.4,723.76l-.18.1-37.73-22-4-2.35-131.17-76.3-2.35-1.37-14.84-8.63,14.84-8.63,2.35-1.37v-2.72l-2.35,1.37-19.51,11.35,19.51,11.35,2.35,1.37,13.24,7.7,90.67,52.74,22.59,13.14,4,2.35L539.4,726.1l.23.13.59.35.18-.1,1.34-.78,40.89-23.79,4-2.35Z"/><path class="cls-3" d="M690.2,547.9l12.58,7.32v2.71l-17.25-10L672,540l-2.59-1.51-20.67-12-4-2.35L632,516.75l-2.35-1.37-20.7-12-1.17-.68-1.18.69-14,8.16-2.34,1.36-13.7,8-.18.11-1.45.84a15.29,15.29,0,0,0-1.88-1.62l1-.58.17-.1,13.7-8h0l2.33-1.36,16.38-9.53,1.18-.69.59.35.58.34,20.7,12L632,514l17.39,10.11,4,2.35,20.66,12,2.6,1.51Z"/><path class="cls-3" d="M508.78,520.17a15.29,15.29,0,0,0-1.88,1.62L505,520.66l-.17-.1-13.53-7.87-2.33-1.36-13.42-7.8-1.49-.87-.86.5-20.94,12.18-2.35,1.37-12.79,7.44-4,2.35-20.67,12L409.77,540l-13.53,7.87h-4.67L405.1,540l2.6-1.51,20.66-12,4-2.35L449.86,514l2.35-1.36,20.94-12.18.27-.16.59-.35,1.49.87L491.25,510l2.34,1.36,13.52,7.87.18.1Z"/><path class="cls-3" d="M614.7,525.12c.46,0,.9,0,1.35.07l-74.89-43.56-.59-.35-75.29,43.8a14.13,14.13,0,0,1,4.17-.63,13.94,13.94,0,0,1,1.45.08L540.57,484l71.21,41.43A14.19,14.19,0,0,1,614.7,525.12Z"/><path class="cls-3" d="M364.93,555.46v2.35h1.17v-2.35Zm0,7.94v2.71l2.35-1.36V562Zm0-39.25V547.9h2.35V526.5H715.2v21.4h2.35V524.15Zm351.19,31.31v2.35h1.43v-2.35Zm-.92,7V664.08l2.35-1.37v-98.9ZM700.6,701v.87H703V701Zm-45.73.47v.4h2.34v-.4Zm-287.59-2v-99l-2.35,1.37v100H650.17l4-2.35ZM364.93,574.1v2.35h1.22V574.1Z"/><rect class="cls-3" x="539.4" y="483.8" width="2.35" height="18.55"/><polygon class="cls-3" points="736.31 505.67 736.31 557.81 733.96 557.81 733.96 508.01 657.21 508.01 657.21 525.32 654.87 525.32 654.87 505.67 736.31 505.67"/><polygon class="cls-3" points="427.66 505.67 427.66 525.32 425.31 525.32 425.31 508.01 348.56 508.01 348.56 547.9 346.22 547.9 346.22 505.67 427.66 505.67"/><polygon class="cls-3" points="497.25 508.18 494.9 508.18 494.9 482.46 400.64 482.46 400.64 506.84 398.29 506.84 398.29 480.11 497.25 480.11 497.25 508.18"/><polygon class="cls-3" points="584.97 508.18 582.62 508.18 582.62 480.11 681.57 480.11 681.57 506.84 679.23 506.84 679.23 482.46 584.97 482.46 584.97 508.18"/><polygon class="cls-3" points="631.98 524.73 629.63 524.73 629.63 461.83 452.21 461.83 452.21 524.73 449.86 524.73 449.86 459.48 631.98 459.48 631.98 524.73"/><polygon class="cls-3" points="381.69 524.73 379.34 524.73 379.34 468.91 451.03 468.91 451.03 471.26 381.69 471.26 381.69 524.73"/><polygon class="cls-3" points="702.95 524.73 700.6 524.73 700.6 471.26 631.26 471.26 631.26 468.91 702.95 468.91 702.95 524.73"/><polygon class="cls-3" points="608.93 522.12 606.58 522.12 606.58 440.74 475.5 440.74 475.5 521.42 473.15 521.42 473.15 438.39 608.93 438.39 608.93 522.12"/><polygon class="cls-3" points="562.32 494.96 559.97 494.96 559.97 451.01 521.1 451.01 521.1 494.8 518.75 494.8 518.75 448.66 562.32 448.66 562.32 494.96"/><polygon class="cls-3" points="457.19 0 392.49 0 380.52 -6.96 380.52 9.97 474 9.97 473.01 9.38 457.19 0"/><path class="cls-3" d="M689.28,0H626.11l-14.2,8.42-.22.13-.46.27-.94.56-1,.59h93.48V-6.72l-1.86,0Z"/><polygon class="cls-3" points="574.23 9.38 550.61 23.12 546.57 25.47 540.91 28.76 535.25 25.47 531.21 23.12 507.59 9.38 491.47 0 486.8 0 502.93 9.38 526.55 23.12 530.59 25.47 540.91 31.47 551.23 25.47 555.27 23.12 578.89 9.38 595.01 0 590.35 0 574.23 9.38"/><path class="cls-3" d="M699.69,43.81a14.57,14.57,0,0,0,2-.14L540.91,137.19,381.32,44.36a14.12,14.12,0,0,0,3.49-.69l156.1,90.8L697.16,43.58A14.09,14.09,0,0,0,699.69,43.81Z"/><polygon class="cls-3" points="605.96 9.38 582.34 23.12 578.3 25.47 540.57 47.42 540.4 47.32 502.84 25.47 498.8 23.12 475.18 9.38 459.05 0 454.38 0 470.51 9.38 471.52 9.97 494.13 23.12 498.17 25.47 539.4 49.45 539.98 49.79 540.39 50.03 540.57 50.13 541.74 49.45 582.96 25.47 587 23.12 609.61 9.97 610.63 9.38 626.75 0 622.09 0 605.96 9.38"/><polygon class="cls-3" points="605.61 9.38 581.99 23.12 577.95 25.47 540.4 47.32 540.22 47.42 502.49 25.47 498.45 23.12 474.83 9.38 458.7 0 454.03 0 470.16 9.38 471.17 9.97 493.78 23.12 497.82 25.47 539.4 49.66 539.63 49.79 540.22 50.13 540.39 50.03 541.74 49.25 582.61 25.47 586.65 23.12 610.28 9.38 610.29 9.38 611.23 8.82 611.69 8.55 611.91 8.42 626.4 0 621.74 0 605.61 9.38"/><path class="cls-3" d="M689.28,0,673.15,9.38l-1,.59L649.53,23.12l-4,2.35L632,33.33l-2.35,1.37-20.7,12-1.17.68-1.18-.69L592,38.24l-1.62-.94a15.5,15.5,0,0,1-1.23,1.33l-.42.42.94.55,16.93,9.85.59.34.59.34,1.17-.68,20.7-12L632,36l18.17-10.57,4-2.35L676.8,10l1-.59L693.94,0l8.84-5.14,2.63-1.53-4.49-.1Z"/><path class="cls-3" d="M491.4,37.3l-1.93,1.12-14,8.13-1.49.87-.86-.5L452.21,34.74l-2.35-1.37-13.58-7.9-4-2.35L409.63,10l-1-.59L392.49,0l-12-7-13.24-7.71L364.93-16l-13.2-7.68-4-2.35h-1.47v1.86l2.34,1.36,16.37,9.52,2.35,1.37,13.24,7.7L387.83,0,404,9.38l1,.59,22.61,13.15,4,2.35,18.24,10.61,2.35,1.37,20.94,12.18.86.5.59-.34.9-.52,16.31-9.49,1.25-.73-.42-.42A15.61,15.61,0,0,1,491.4,37.3Z"/><path class="cls-3" d="M614.7,24.3c.46,0,.9,0,1.35-.06L541.16,67.8l-.59.34L465.28,24.35a14.46,14.46,0,0,0,4.17.62,13.94,13.94,0,0,0,1.45-.07l69.67,40.52L611.78,24A14.18,14.18,0,0,0,614.7,24.3Z"/><path class="cls-3" d="M715.2,23.12H367.28V-14.67L364.93-16v41.5H717.55V-6.63H715.2Z"/><rect class="cls-3" x="539.4" y="47.64" width="2.35" height="18.55"/><path class="cls-3" d="M734,42.38H657.21V25.07h-2.34V44.73h81.44V-7.5L734-7.32Z"/><polygon class="cls-3" points="425.31 42.38 348.56 42.38 348.56 -23.71 366.15 -23.71 366.15 -26.06 346.22 -26.06 346.22 44.73 427.66 44.73 427.66 25.07 425.31 25.07 425.31 42.38"/><polygon class="cls-3" points="497.25 69.77 398.29 69.77 398.29 43.04 400.64 43.04 400.64 67.42 494.9 67.42 494.9 41.71 497.25 41.71 497.25 69.77"/><polygon class="cls-3" points="681.57 69.77 582.62 69.77 582.62 41.71 584.97 41.71 584.97 67.42 679.23 67.42 679.23 43.04 681.57 43.04 681.57 69.77"/><polygon class="cls-3" points="631.98 89.54 449.86 89.54 449.86 24.29 452.21 24.29 452.21 87.19 629.63 87.19 629.63 24.29 631.98 24.29 631.98 89.54"/><polygon class="cls-3" points="451.03 80.41 379.34 80.41 379.34 24.6 381.69 24.6 381.69 78.06 451.03 78.06 451.03 80.41"/><polygon class="cls-3" points="702.95 80.41 631.26 80.41 631.26 78.06 700.6 78.06 700.6 24.6 702.95 24.6 702.95 80.41"/><polygon class="cls-3" points="608.93 111.72 473.15 111.72 473.15 28.7 475.5 28.7 475.5 109.38 606.58 109.38 606.58 27.99 608.93 27.99 608.93 111.72"/><polygon class="cls-3" points="562.32 101.29 518.75 101.29 518.75 55.15 521.1 55.15 521.1 98.94 559.97 98.94 559.97 54.99 562.32 54.99 562.32 101.29"/><text class="cls-4" transform="translate(234.97 302.57)"><tspan class="cls-5">Mosai</tspan><tspan x="555.33" y="0">c</tspan></text><text class="cls-6" transform="translate(432.24 383.93)">Medi<tspan class="cls-7" x="185.94" y="0">a</tspan></text></g></g></svg>